<svg width="24" height="19" viewBox="0 0 24 19" fill="none" xmlns="http://www.w3.org/2000/svg">
<path d="M23.2754 6.764C21.7244 4.238 18.1964 0 12.0044 0C5.81245 0 2.28445 4.238 0.733446 6.764C0.253974 7.53951 0 8.43324 0 9.345C0 10.2568 0.253974 11.1505 0.733446 11.926C2.28445 14.452 5.81245 18.69 12.0044 18.69C18.1964 18.69 21.7244 14.452 23.2754 11.926C23.7549 11.1505 24.0089 10.2568 24.0089 9.345C24.0089 8.43324 23.7549 7.53951 23.2754 6.764ZM21.5704 10.879C20.2384 13.045 17.2234 16.69 12.0044 16.69C6.78545 16.69 3.77045 13.045 2.43845 10.879C2.15358 10.418 2.0027 9.88687 2.0027 9.345C2.0027 8.80313 2.15358 8.27196 2.43845 7.811C3.77045 5.645 6.78545 2 12.0044 2C17.2234 2 20.2384 5.641 21.5704 7.811C21.8553 8.27196 22.0062 8.80313 22.0062 9.345C22.0062 9.88687 21.8553 10.418 21.5704 10.879Z" fill="#BFBFBF"/>
</svg>
