<svg width="17" height="16" viewBox="0 0 17 16" fill="none" xmlns="http://www.w3.org/2000/svg">
<rect width="17" height="16" fill="#1E1E1E"/>
<g id="Home" clip-path="url(#clip0_0_1)">
<rect width="1920" height="1080" transform="translate(-1556 -58)" fill="white"/>
<g id="&#216;&#181;&#217;&#129;&#216;&#173;&#217;&#135; &#216;&#167;&#217;&#134;&#216;&#170;&#216;&#174;&#216;&#167;&#216;&#168;&#216;&#167;&#216;&#170;">
<rect id="&#216;&#168;&#218;&#169; &#218;&#175;&#216;&#177;&#216;&#167;&#217;&#134;&#216;&#175;" x="-37" y="-58" width="401" height="1080" fill="#D8D8D8"/>
<g id="&#217;&#190;&#216;&#177;&#217;&#136;&#217;&#129;&#216;&#167;&#219;&#140;&#217;&#132;">
<rect id="&#216;&#168;&#218;&#175;" x="-19" y="-21" width="365" height="60" rx="30" fill="white"/>
<g id="&#216;&#173;&#216;&#167;&#217;&#132;&#216;&#170; &#216;&#170;&#216;&#167;&#216;&#177;&#219;&#140;&#218;&#169;">
<rect id="&#216;&#173;&#216;&#167;&#217;&#132;&#216;&#170; &#216;&#170;&#216;&#167;&#216;&#177;&#219;&#140;&#218;&#169;_2" x="-8.95409" y="-14" width="106.04" height="45" rx="22.5" fill="#D8D8D8"/>
<g id="&#216;&#173;&#216;&#167;&#217;&#132;&#216;&#170; &#216;&#170;&#216;&#167;&#216;&#177;&#219;&#140;&#218;&#169;_3" opacity="0.5">
<path id="Path 19" d="M4.11322 11.8416C6.00926 11.8416 7.82776 11.1439 9.16846 9.90197C10.5092 8.66004 11.2623 6.97562 11.2623 5.21927C11.2636 4.09237 10.9529 2.98397 10.36 2C11.8665 2.38573 13.1948 3.21834 14.1417 4.37025C15.0886 5.52216 15.6018 6.92984 15.6025 8.37767C15.6025 10.134 14.8492 11.8184 13.5085 13.0604C12.1678 14.3023 10.3494 15 8.4534 15C7.17925 15 5.92822 14.6844 4.83009 14.0858C3.73197 13.4872 2.82661 12.6275 2.20796 11.5957C2.82814 11.7569 3.46907 11.8397 4.11322 11.8416Z" stroke="black" stroke-width="1.5" stroke-miterlimit="10"/>
</g>
</g>
</g>
</g>
</g>
<defs>
<clipPath id="clip0_0_1">
<rect width="1920" height="1080" fill="white" transform="translate(-1556 -58)"/>
</clipPath>
</defs>
</svg>
